<svg width="12" height="12" viewBox="0 0 12 12" fill="none" xmlns="http://www.w3.org/2000/svg">
<path d="M11.2501 0.75834C10.9251 0.43334 10.4001 0.43334 10.0751 0.75834L6.0001 4.82501L1.9251 0.750006C1.6001 0.425006 1.0751 0.425006 0.750098 0.750006C0.425098 1.07501 0.425098 1.60001 0.750098 1.92501L4.8251 6.00001L0.750098 10.075C0.425098 10.4 0.425098 10.925 0.750098 11.25C1.0751 11.575 1.6001 11.575 1.9251 11.25L6.0001 7.17501L10.0751 11.25C10.4001 11.575 10.9251 11.575 11.2501 11.25C11.5751 10.925 11.5751 10.4 11.2501 10.075L7.1751 6.00001L11.2501 1.92501C11.5668 1.60834 11.5668 1.07501 11.2501 0.75834Z" fill="#94A3B8"/>
</svg>
